<svg width="196" height="196" viewBox="0 0 196 196" fill="none" xmlns="http://www.w3.org/2000/svg">
<path d="M187.833 193.278H9.6187C8.42092 193.278 7.44092 192.298 7.44092 191.1V182.57C7.44092 181.373 8.42092 180.393 9.6187 180.393H187.833C189.031 180.393 190.011 181.373 190.011 182.57V191.1C190.011 192.298 189.031 193.278 187.833 193.278Z" fill="#F7F7F7"/>
<path d="M100.178 183.478C133.654 183.478 160.793 156.34 160.793 122.863C160.793 89.3862 133.654 62.248 100.178 62.248C66.7012 62.248 39.563 89.3862 39.563 122.863C39.563 156.34 66.7012 183.478 100.178 183.478Z" fill="#F3FAFF"/>
<path d="M175.311 165.675C176.6 162.39 177.906 158.742 176.69 155.439C176.4 154.64 175.946 153.788 176.219 152.971C176.582 151.864 178.033 151.483 178.505 150.43C179.05 149.269 178.197 147.926 178.414 146.673C178.632 145.403 179.885 144.568 181.1 144.115C182.316 143.661 183.641 143.37 184.621 142.536C186.49 140.902 186.273 137.98 185.855 135.512C185.438 133.062 185.129 130.159 186.926 128.435C183.623 129.07 180.247 129.723 177.38 131.465C174.513 133.208 172.226 136.293 172.389 139.65C172.48 141.338 173.133 143.135 172.371 144.623C171.536 146.238 169.304 146.873 168.742 148.597C168.088 150.575 170.03 152.39 170.792 154.332C171.518 156.165 171.173 158.216 171.337 160.158C171.5 162.118 172.516 164.332 174.458 164.622L175.311 165.675Z" fill="#FFBE55"/>
<path opacity="0.31" d="M175.311 165.675C176.6 162.39 177.906 158.742 176.69 155.439C176.4 154.64 175.946 153.788 176.219 152.971C176.582 151.864 178.033 151.483 178.505 150.43C179.05 149.269 178.197 147.926 178.414 146.673C178.632 145.403 179.885 144.568 181.1 144.115C182.316 143.661 183.641 143.37 184.621 142.536C186.49 140.902 186.273 137.98 185.855 135.512C185.438 133.062 185.129 130.159 186.926 128.435C183.623 129.07 180.247 129.723 177.38 131.465C174.513 133.208 172.226 136.293 172.389 139.65C172.48 141.338 173.133 143.135 172.371 144.623C171.536 146.238 169.304 146.873 168.742 148.597C168.088 150.575 170.03 152.39 170.792 154.332C171.518 156.165 171.173 158.216 171.337 160.158C171.5 162.118 172.516 164.332 174.458 164.622L175.311 165.675Z" fill="white"/>
<path d="M173.986 161.373C173.95 151.827 175.801 131.846 186.817 128.507" stroke="white" stroke-width="0.75" stroke-miterlimit="10" stroke-linecap="round"/>
<path d="M167.635 164.876C165.675 161.21 163.642 157.127 164.604 153.08C164.84 152.1 165.239 151.047 164.822 150.122C164.259 148.888 162.499 148.616 161.791 147.454C161.011 146.184 161.809 144.478 161.374 143.044C160.938 141.574 159.359 140.794 157.889 140.413C156.419 140.05 154.822 139.904 153.552 139.033C151.138 137.382 150.993 133.916 151.138 130.994C151.283 128.072 151.247 124.624 148.906 122.863C152.862 123.154 156.909 123.462 160.502 125.114C164.096 126.765 167.217 130.068 167.471 134.024C167.598 136.003 167.072 138.198 168.179 139.85C169.377 141.628 172.081 142.064 172.988 144.006C174.023 146.238 172.008 148.616 171.373 150.993C170.792 153.225 171.464 155.584 171.537 157.889C171.609 160.194 170.72 162.934 168.488 163.551L167.635 164.876Z" fill="#FFBE55"/>
<path d="M168.596 159.649C167.326 148.452 162.426 125.313 149.051 122.936" stroke="white" stroke-width="0.75" stroke-miterlimit="10" stroke-linecap="round"/>
<path d="M180.03 186.382H162.789C161.591 186.382 160.611 185.402 160.611 184.204L159.159 159.341C159.159 158.143 160.139 157.163 161.337 157.163H181.481C182.679 157.163 183.659 158.143 183.659 159.341L182.207 184.204C182.207 185.402 181.227 186.382 180.03 186.382Z" fill="#CCE9FF"/>
<path d="M23.6914 107.42L34.8161 105.733L42.3796 155.615L31.2549 157.302L23.6914 107.42Z" fill="#FFBE55"/>
<path d="M29.25 106.581L34.8123 105.738L42.3758 155.619L36.8135 156.463L29.25 106.581Z" fill="#FFBE55"/>
<path d="M34.8265 105.786L23.7017 107.473L26.315 100.777L27.8031 97.002L30.3439 100.178L34.8265 105.786Z" fill="#FFEBC2"/>
<path d="M30.3438 100.178L26.3149 100.777L27.8031 97.002L30.3438 100.178Z" fill="#0E538C"/>
<path d="M43.7578 94.3125L54.9647 95.3161L50.4649 145.566L39.258 144.563L43.7578 94.3125Z" fill="#FFBE55"/>
<path d="M49.3721 94.8184L54.9755 95.3201L50.4757 145.57L44.8723 145.068L49.3721 94.8184Z" fill="#FFBE55"/>
<path d="M54.9709 95.3682L43.7554 94.3701L47.8931 88.4901L50.2343 85.1689L51.9402 88.853L54.9709 95.3682Z" fill="#FFEBC2"/>
<path d="M51.9401 88.853L47.8931 88.4901L50.2342 85.1689L51.9401 88.853Z" fill="#0E538C"/>
<path d="M62.339 186.563H18.1301L12.3408 118.145H65.8779L62.339 186.563Z" fill="#CCE9FF"/>
<path opacity="0.5" d="M39.1094 186.563H62.339L65.8779 118.145H39.1094V186.563Z" fill="#CCE9FF"/>
<path d="M48.8184 167.253H161.155V182.697H48.8184V167.253Z" fill="#FFEBC2"/>
<path d="M49.2902 167.254V182.698H167.144V183.859C167.144 185.293 165.892 186.454 164.349 186.454H49.7983C46.1505 186.454 43.1924 183.732 43.1924 180.357V170.03C43.1924 166.655 46.1505 163.933 49.7983 163.933H164.349C165.892 163.933 167.144 165.094 167.144 166.528V167.272H49.2902V167.254Z" fill="#FFBE55"/>
<path d="M48.8184 174.132H161.155V182.68H48.8184V174.132Z" fill="#FFEBC2"/>
<path d="M63.3369 148.452H154.622V161.882H63.3369V148.452Z" fill="#CCE9FF"/>
<path d="M63.337 148.452V161.882H158.07V162.898C158.07 164.15 157.054 165.148 155.82 165.148H63.7363C60.8144 165.148 58.437 162.771 58.437 159.849V150.866C58.437 147.944 60.8144 145.566 63.7363 145.566H155.82C157.054 145.566 158.07 146.583 158.07 147.817V148.47H63.337V148.452Z" fill="#2A94F4"/>
<path d="M102.791 102.737C101.539 101.085 101.43 98.8166 102.61 97.0925C103.553 95.7133 104.189 94.0074 104.116 92.7551C103.971 90.5048 102.573 88.4359 100.668 87.2018C98.1634 85.5685 94.8241 85.3326 92.1201 86.6029C89.416 87.8733 87.456 90.5955 87.1112 93.5537C86.8571 95.677 87.3471 98 86.2582 99.8511C85.4597 101.176 83.9897 101.956 82.5378 102.483C81.0678 102.991 79.5252 103.336 78.1823 104.116C76.8393 104.896 75.696 106.239 75.7141 107.8C75.7323 108.98 76.4038 110.068 76.4764 111.23C76.5852 112.936 75.3875 114.442 74.1171 115.567C72.8286 116.693 71.3586 117.673 70.4875 119.143C69.0538 121.574 69.7253 124.859 71.5401 127.037C73.3549 129.215 76.0771 130.431 78.7993 131.138C86.2401 133.098 94.0801 131.828 101.757 131.701C104.134 131.665 106.566 131.737 108.871 131.138C111.176 130.54 113.426 129.16 114.388 126.983C115.368 124.805 114.878 122.155 113.571 120.177C112.265 118.199 110.214 116.765 108.054 115.749C106.493 115.005 104.824 114.424 103.553 113.263C102.283 112.101 101.539 110.123 102.392 108.617C102.719 108.036 103.263 107.582 103.572 107.001C104.189 105.876 103.935 104.443 103.245 103.354C103.118 103.172 102.973 102.973 102.791 102.737Z" fill="#0E538C"/>
<path d="M63.3369 154.44H154.622V161.881H63.3369V154.44Z" fill="#CCE9FF"/>
<path d="M104.533 135.385L115.785 143.37L129.578 171.863H127.037L111.611 146.637C111.611 146.637 106.348 146.818 104.533 145.185C102.718 143.551 92.2832 136.474 92.2832 136.474L104.533 135.385Z" fill="#0B4870"/>
<path d="M84.625 133.099C82.5742 138.652 84.0261 146.456 90.9224 146.819C97.8187 147.182 99.9965 146.819 99.9965 146.819L113.426 174.041H116.511L105.985 143.552L93.1909 136.474L84.625 133.099Z" fill="#0E538C"/>
<path d="M95.0962 101.448C96.911 103.808 101.267 110.341 102.9 117.6C104.533 124.859 109.07 135.385 109.07 135.385H103.807L98.7258 118.145L94.0073 101.993L95.0962 101.448Z" fill="#4EA3FB"/>
<path d="M100.686 91.8117C100.958 96.258 99.0161 99.3069 96.2394 99.452C93.4627 99.5972 91.6479 95.5683 92.4827 91.8117C94.4246 88.4724 97.0742 88.2002 97.0742 88.2002H98.7438L100.686 91.8117Z" fill="#FFE3CA"/>
<path d="M98.8347 89.1616C98.3266 90.7223 97.2014 92.0653 95.7495 92.8275C94.2977 93.5897 92.5555 93.7712 90.9766 93.2993L94.9329 87.6553H98.3266L101.575 90.2323L101.085 93.1905C99.8147 92.2286 98.8347 89.1616 98.8347 89.1616Z" fill="#0E538C"/>
<path d="M95.405 98.9259C94.8243 101.176 95.0058 103.535 95.0058 103.898C94.4613 104.624 91.9206 104.443 91.5576 101.902C92.1021 98.6355 93.191 95.0059 93.191 95.0059L94.0984 97.0022L95.405 98.9259Z" fill="#FFE3CA"/>
<path d="M91.9202 99.9785C89.6517 100.723 82.0295 104.171 81.6665 104.897C82.2109 106.893 84.9332 136.474 84.9332 136.474H97.2739C97.2739 136.474 95.6406 120.141 96.548 119.052C97.4554 117.963 100.359 114.152 99.9961 113.608C99.6332 113.063 95.0235 101.358 95.0235 101.358L91.9202 99.9785Z" fill="#2A94F4"/>
<path d="M81.6667 104.896C79.8882 106.258 72.4111 118.508 74.7704 125.041C77.1297 131.574 84.8426 135.422 84.8426 135.422V131.828C84.8426 131.828 78.5815 126.856 78.9445 123.226C79.3074 119.596 83.663 112.156 83.663 112.156L81.6667 104.896Z" fill="#4EA3FB"/>
<path d="M110.903 138.561H84.1893C83.3545 138.561 82.6649 137.872 82.6649 137.037L81.939 119.941C81.939 119.107 82.6286 118.417 83.4634 118.417H111.266C112.101 118.417 112.791 119.107 112.791 119.941L112.428 137.037C112.428 137.872 111.738 138.561 110.903 138.561Z" fill="#FFBE55"/>
<path d="M116.075 174.04C117.872 174.44 120.304 176.418 121.465 177.434C121.701 177.634 121.556 178.033 121.229 178.033C119.36 177.997 115.132 177.797 114.152 176.962C112.881 175.873 113.244 174.059 113.244 174.059H116.075V174.04ZM129.541 171.79C131.138 172.226 133.244 174.077 134.296 175.075C134.532 175.293 134.351 175.674 134.042 175.656C132.282 175.529 128.507 175.184 127.654 174.367C126.529 173.315 126.946 171.663 126.946 171.663L129.541 171.79Z" fill="#1A87D8"/>
<path d="M97.4556 131.211C98.9591 131.211 100.178 129.992 100.178 128.489C100.178 126.985 98.9591 125.767 97.4556 125.767C95.9522 125.767 94.7334 126.985 94.7334 128.489C94.7334 129.992 95.9522 131.211 97.4556 131.211Z" fill="white"/>
<path d="M73.4998 167.145L70.0517 165.148L66.6035 167.145V154.441H73.4998V167.145ZM126.964 91.9204C126.964 92.2652 126.837 92.5738 126.619 92.8278C126.837 93.0638 126.964 93.3904 126.964 93.7352V94.8604C126.964 95.0964 126.892 95.3323 126.783 95.5319C126.892 95.7316 126.964 95.9675 126.964 96.2034V97.3286C126.964 98.0727 126.365 98.6715 125.621 98.6715H113.934C113.19 98.6715 112.591 98.0727 112.591 97.3286V96.1852C112.591 95.9493 112.664 95.7134 112.772 95.5138C112.664 95.3141 112.591 95.0782 112.591 94.8423V93.7171C112.591 93.3723 112.718 93.0638 112.936 92.8097C112.718 92.5738 112.591 92.2471 112.591 91.9023V90.7771C112.591 90.033 113.19 89.4341 113.934 89.4341H125.621C126.365 89.4341 126.964 90.033 126.964 90.7771V91.9204ZM136.292 66.4767C136.292 73.0282 132.481 78.6723 126.964 81.3582V87.456C126.964 87.9097 126.583 88.2908 126.129 88.2908H113.426C112.972 88.2908 112.591 87.9097 112.591 87.456V81.3582C107.074 78.6904 103.263 73.0282 103.263 66.4767C103.263 57.3482 110.649 49.9619 119.778 49.9619C128.906 49.9619 136.292 57.3664 136.292 66.4767Z" fill="#FFBE55"/>
<path opacity="0.23" d="M125.404 92.9189H114.333M125.404 95.4597H114.333" stroke="#7F7F7F" stroke-width="2" stroke-miterlimit="10" stroke-linecap="round"/>
<path d="M122.609 68.5094C122.409 68.328 122.119 68.2372 121.81 68.2735C121.429 68.3098 121.066 68.5276 120.83 68.8361C120.631 69.1083 120.522 69.435 120.468 69.7435C120.304 69.6528 120.123 69.562 119.959 69.4531L119.905 69.4168H119.669L119.615 69.4531C119.433 69.562 119.27 69.6528 119.106 69.7435C119.052 69.435 118.943 69.1083 118.743 68.8361C118.526 68.5276 118.145 68.3098 117.763 68.2735C117.455 68.2372 117.183 68.328 116.965 68.5094C116.693 68.7635 116.602 69.1265 116.693 69.5076C116.838 70.0157 117.255 70.4331 117.745 70.5239C118.054 70.5783 118.344 70.5602 118.653 70.4876C119.106 76.3857 119.288 82.3565 119.161 88.2546H119.705C119.832 82.3383 119.651 76.3494 119.197 70.4513C119.197 70.3968 119.197 70.3424 119.179 70.288C119.397 70.1972 119.596 70.0883 119.796 69.9613C119.996 70.0702 120.195 70.1972 120.413 70.288C120.413 70.3424 120.413 70.3968 120.395 70.4513C119.941 76.3494 119.76 82.3383 119.887 88.2546H120.431C120.304 82.3565 120.486 76.3676 120.939 70.4876C121.23 70.5602 121.538 70.5965 121.847 70.5239C122.319 70.4331 122.754 70.0157 122.899 69.5076C122.972 69.1265 122.881 68.7635 122.609 68.5094ZM117.836 70.0157C117.564 69.9613 117.292 69.6891 117.201 69.3805C117.165 69.2535 117.146 69.0539 117.31 68.9268C117.401 68.8361 117.528 68.818 117.618 68.818H117.691C117.909 68.8361 118.145 68.9631 118.29 69.1628C118.453 69.3805 118.544 69.6528 118.58 69.9613C118.326 70.0339 118.09 70.052 117.836 70.0157ZM122.355 69.3805C122.264 69.6891 122.01 69.9613 121.72 70.0157C121.484 70.0702 121.23 70.0339 120.994 69.9613C121.048 69.6528 121.121 69.3805 121.284 69.1628C121.411 68.9813 121.647 68.8543 121.883 68.818C121.992 68.7998 122.137 68.818 122.264 68.9268C122.391 69.0539 122.373 69.2535 122.355 69.3805Z" fill="white"/>
<path d="M115.422 52.9922C111.43 54.444 104.896 59.707 105.441 68.2366" stroke="white" stroke-width="4" stroke-miterlimit="10" stroke-linecap="round"/>
<path d="M93.5536 82.5739C96.1094 82.5739 98.1813 80.502 98.1813 77.9461C98.1813 75.3903 96.1094 73.3184 93.5536 73.3184C90.9977 73.3184 88.9258 75.3903 88.9258 77.9461C88.9258 80.502 90.9977 82.5739 93.5536 82.5739Z" fill="#FFBE55"/>
<path d="M143.098 64.7893C144.251 64.7893 145.185 63.8549 145.185 62.7023C145.185 61.5496 144.251 60.6152 143.098 60.6152C141.946 60.6152 141.011 61.5496 141.011 62.7023C141.011 63.8549 141.946 64.7893 143.098 64.7893Z" fill="#FFBE55"/>
<path d="M136.292 98.907C138.197 98.907 139.741 97.3632 139.741 95.4589C139.741 93.5545 138.197 92.0107 136.292 92.0107C134.388 92.0107 132.844 93.5545 132.844 95.4589C132.844 97.3632 134.388 98.907 136.292 98.907Z" fill="#FFBE55"/>
<path d="M103.263 50.8152C105.167 50.8152 106.711 49.2715 106.711 47.3671C106.711 45.4627 105.167 43.9189 103.263 43.9189C101.359 43.9189 99.8149 45.4627 99.8149 47.3671C99.8149 49.2715 101.359 50.8152 103.263 50.8152Z" fill="#FFBE55"/>
<path opacity="0.14" d="M73.4998 167.144L70.0517 165.148L66.6035 167.144V154.44H73.4998V167.144Z" fill="#0C0C0C"/>
</svg>
